<svg xmlns="http://www.w3.org/2000/svg" version="1.1" xmlns:xlink="http://www.w3.org/1999/xlink" xmlns:svgjs="http://svgjs.com/svgjs" width="750" height="750" preserveAspectRatio="none" viewBox="0 0 550 550">
    <g mask="url(&quot;#SvgjsMask1061&quot;)" fill="none">
        <rect width="750" height="750" x="0" y="0" fill="rgba(245, 247, 251, 1)"></rect>
        <path d="M411.587,351.285C434.332,351.354,456.97,342.611,468.677,323.11C480.702,303.078,479.443,277.951,467.756,257.72C456.074,237.498,434.94,224.034,411.587,224.283C388.633,224.528,368.879,238.986,357.457,258.897C346.095,278.704,343.55,303.065,355.093,322.766C366.522,342.273,388.978,351.217,411.587,351.285" fill="rgba(222, 235, 248, 1)" class="triangle-float1"></path>
        <path d="M27.046,68.285C48.099,68.9,66.196,54.789,76.73,36.55C87.267,18.306,89.286,-3.756,79.397,-22.359C68.878,-42.146,49.408,-58.356,27.046,-56.91C6.26,-55.566,-5.516,-34.937,-14.757,-16.27C-22.707,-0.212,-25.795,17.726,-17.854,33.788C-8.889,51.922,6.826,67.695,27.046,68.285" fill="rgba(222, 235, 248, 1)" class="triangle-float1"></path>
        <path d="M443.886,213.409C459.667,212.89,474.447,205.03,482.111,191.225C489.566,177.796,487.333,161.801,480.042,148.282C472.293,133.914,460.21,120.341,443.886,120.346C427.568,120.351,415.981,134.204,407.768,148.304C399.482,162.529,393.061,179.495,401.047,193.89C409.206,208.597,427.076,213.961,443.886,213.409" fill="rgba(222, 235, 248, 1)" class="triangle-float3"></path>
        <path d="M396.937,214.909C437.878,214.153,481.906,209.473,504.499,175.322C529.129,138.091,530.074,87.829,505.779,50.38C483.173,15.535,438.471,9.183,396.937,9.524C356.191,9.859,313.942,18.368,291.147,52.143C265.647,89.926,257.43,141.203,282.271,179.423C305.64,215.379,354.061,215.7,396.937,214.909" fill="rgba(222, 235, 248, 1)" class="triangle-float1"></path>
        <path d="M63.068,480.893C86.731,482.597,114.29,480.819,126.199,460.301C138.134,439.739,126.012,414.911,112.862,395.104C101.386,377.819,83.815,365.06,63.068,365.214C42.569,365.367,24.622,377.985,14.542,395.836C4.638,413.376,3.961,434.719,13.943,452.215C24.013,469.866,42.799,479.433,63.068,480.893" fill="rgba(222, 235, 248, 1)" class="triangle-float1"></path>
        <path d="M72.149,206.984C95.853,206.114,117.624,194.261,129.672,173.829C141.92,153.058,143.583,127.219,131.484,106.361C119.425,85.571,96.183,74.68,72.149,74.66C48.077,74.64,25.476,85.896,12.642,106.262C-1.132,128.119,-6.326,156.096,6.815,178.339C19.779,200.282,46.679,207.919,72.149,206.984" fill="rgba(222, 235, 248, 1)" class="triangle-float3"></path>
    </g>
    <defs>
        <mask id="SvgjsMask1061">
            <rect width="750" height="750" fill="#ffffff"></rect>
        </mask>
        <style>
            @keyframes float1 {
                0%{transform: translate(0, 0)}
                50%{transform: translate(-10px, 0)}
                100%{transform: translate(0, 0)}
            }

            .triangle-float1 {
                animation: float1 5s infinite;
            }

            @keyframes float2 {
                0%{transform: translate(0, 0)}
                50%{transform: translate(-5px, -5px)}
                100%{transform: translate(0, 0)}
            }

            .triangle-float2 {
                animation: float2 4s infinite;
            }

            @keyframes float3 {
                0%{transform: translate(0, 0)}
                50%{transform: translate(0, -10px)}
                100%{transform: translate(0, 0)}
            }

            .triangle-float3 {
                animation: float3 6s infinite;
            }
        </style>
    </defs>
</svg>